<svg width="64" height="56" viewBox="0 0 64 56" fill="none" xmlns="http://www.w3.org/2000/svg">
<path fill-rule="evenodd" clip-rule="evenodd" d="M63.8002 27.9999C63.8002 43.5867 49.3124 55.7999 32.0002 55.7999C14.688 55.7999 0.200199 43.5867 0.200199 27.9999C0.200199 12.4132 14.688 0.199951 32.0002 0.199951C49.3124 0.199951 63.8002 12.4132 63.8002 27.9999ZM32.0002 53.9999C48.5687 53.9999 62.0002 42.3594 62.0002 27.9999C62.0002 13.6405 48.5687 1.99995 32.0002 1.99995C15.4317 1.99995 2.0002 13.6405 2.0002 27.9999C2.0002 42.3594 15.4317 53.9999 32.0002 53.9999ZM22.3602 38.2401C20.8602 38.2401 19.4202 38.0201 18.0402 37.5801C16.6802 37.1201 15.5902 36.5101 14.7702 35.7501C14.4702 35.4701 14.3202 35.1201 14.3202 34.7001C14.3202 34.4201 14.4002 34.1801 14.5602 33.9801C14.7202 33.7601 14.9102 33.6501 15.1302 33.6501C15.3902 33.6501 15.6702 33.7601 15.9702 33.9801C17.8302 35.4201 19.9502 36.1401 22.3302 36.1401C24.0502 36.1401 25.3702 35.8101 26.2902 35.1501C27.2102 34.4901 27.6702 33.5501 27.6702 32.3301C27.6702 31.6301 27.4502 31.0701 27.0102 30.6501C26.5702 30.2101 25.9902 29.8601 25.2702 29.6001C24.5502 29.3401 23.5802 29.0701 22.3602 28.7901C20.7202 28.4101 19.3702 28.0101 18.3102 27.5901C17.2702 27.1701 16.4202 26.5701 15.7602 25.7901C15.1202 25.0101 14.8002 23.9901 14.8002 22.7301C14.8002 21.5301 15.1202 20.4701 15.7602 19.5501C16.4202 18.6101 17.3302 17.8901 18.4902 17.3901C19.6702 16.8701 21.0102 16.6101 22.5102 16.6101C23.9102 16.6101 25.2102 16.8301 26.4102 17.2701C27.6302 17.6901 28.6502 18.3001 29.4702 19.1001C29.7902 19.4201 29.9502 19.7701 29.9502 20.1501C29.9502 20.4301 29.8702 20.6801 29.7102 20.9001C29.5502 21.1001 29.3602 21.2001 29.1402 21.2001C28.9202 21.2001 28.6302 21.0901 28.2702 20.8701C27.2902 20.0701 26.3802 19.5101 25.5402 19.1901C24.7002 18.8701 23.6902 18.7101 22.5102 18.7101C20.8502 18.7101 19.5602 19.0601 18.6402 19.7601C17.7202 20.4401 17.2602 21.4001 17.2602 22.6401C17.2602 23.7001 17.6602 24.5001 18.4602 25.0401C19.2802 25.5601 20.5302 26.0201 22.2102 26.4201C24.0302 26.8601 25.4602 27.2701 26.5002 27.6501C27.5402 28.0101 28.4002 28.5601 29.0802 29.3001C29.7802 30.0401 30.1302 31.0301 30.1302 32.2701C30.1302 33.4501 29.8002 34.4901 29.1402 35.3901C28.5002 36.2901 27.5902 36.9901 26.4102 37.4901C25.2302 37.9901 23.8802 38.2401 22.3602 38.2401ZM51.9492 36.92C52.0292 37.0799 52.0692 37.25 52.0692 37.43C52.0692 37.7299 51.9492 37.9799 51.7092 38.18C51.4892 38.38 51.2192 38.4799 50.8992 38.4799C50.3992 38.4799 50.0492 38.24 49.8492 37.7599L47.7192 32.9H36.4092L34.2492 37.7599C34.0492 38.24 33.6992 38.4799 33.1992 38.4799C32.8792 38.4799 32.5992 38.38 32.3592 38.18C32.1192 37.96 31.9992 37.7 31.9992 37.4C31.9992 37.24 32.0392 37.0799 32.1192 36.92L35.8852 28.5454C36.1991 29.3118 36.7503 29.983 37.4948 30.4384L37.3092 30.86H46.8192L42.0492 20.09L41.4913 21.3577C40.678 21.133 39.8353 21.1779 39.0751 21.4516L40.6992 17.84C40.8192 17.5599 40.9992 17.35 41.2392 17.2099C41.4792 17.07 41.7392 17 42.0192 17C42.3192 17 42.5892 17.08 42.8292 17.24C43.0692 17.3799 43.2492 17.58 43.3692 17.84L51.9492 36.92Z" fill="black"/>
</svg>
